<svg id="Layer_1" data-name="Layer 1" xmlns="http://www.w3.org/2000/svg" viewBox="0 0 1528.71 696.86"><defs><style>.cls-1,.cls-12{fill:#34bfd7;}.cls-2{fill:#efe62f;}.cls-3{fill:#00a1b9;}.cls-4{fill:#12a8be;}.cls-5{fill:#69c8d6;}.cls-6{fill:#05a3bb;}.cls-7{font-size:146.81px;font-family:Montserrat-BoldItalic, Montserrat;}.cls-13,.cls-7{fill:#fff;font-weight:700;font-style:italic;}.cls-8{letter-spacing:-0.02em;}.cls-9{letter-spacing:0em;}.cls-10{letter-spacing:-0.01em;}.cls-11{letter-spacing:0em;}.cls-12{font-size:81.87px;font-family:Barlow-ExtraBold, Barlow;font-weight:800;}.cls-13{font-size:248.33px;stroke:#fff;stroke-miterlimit:10;stroke-width:6px;font-family:Humanist521BT-BoldItalic, Humanst521 BT;letter-spacing:0.1em;}</style></defs><title>logo ls</title><path class="cls-1" d="M473.66,203.67c-.09-6.69.1-13.4-.37-20.07-.34-5,1-6.59,6.37-6.55,37.9.25,75.8.13,113.7.13,21.2,0,42.4.1,63.6-.08,4,0,5.13,1.14,5,5-.33,9.85.17,19.75-.49,29.57-.4,6,1.79,6.94,7.18,6.86,10.84-.18,21.7-.78,32.53.36-1.89,2.43-4.66,2.13-7.24,2.16q-12.11.18-24.21,0c-4.32-.06-6.19,1.77-6,6,.09,2,0,4.09,0,6.14,0,76.15.12,152.29-.28,228.44,0,3.07.85,6.39-1.63,9.07l-99.1.23H552.59c-8.75,0-8.75,0-8.75-9,0-3.92.32-7.86-.08-11.73-.48-4.76.86-6.34,6-6.28,27.41.28,54.82,0,82.23.23,4.5,0,6.06-.88,6.05-5.71q-.24-114.54,0-229.08c0-4.53-1.37-5.56-5.72-5.55q-76.3.21-152.63.08c-2.05,0-4.09-.25-6.14-.38Z"/><path class="cls-2" d="M658.06,469.87q0-123.24-.14-246.47c0-5.41,1.39-7.05,6.85-6.87,10.87.35,21.77-.06,32.65-.16.84,5.29-2.55,9.53-3.7,14.34-1.77,7.43-4.12,14.73-6.23,22.08,1.46,2.2.35,4.37-.18,6.5-7.69,31.15-14,62.58-17.75,94.46-3.12,26.4-5.86,52.82-7.17,79.4-.54,10.84-.55,21.67-.89,32.49,0,1.5,0,3-1.11,4.23Z"/><path class="cls-1" d="M555.67,337.62c-17.46,0-34.93-.25-52.38.14-5.46.12-6.69-1.7-6.34-6.59a153.56,153.56,0,0,0,0-16.2c-.09-3,.6-4.26,4-4.25q54.91.16,109.84,0c3.33,0,4.13,1.18,4,4.21-.19,6.14-.24,12.3,0,18.44.15,3.57-1.27,4.33-4.58,4.31C592.09,337.55,573.88,337.62,555.67,337.62Z"/><path class="cls-3" d="M664.86,460.56c-.62-17.86.31-35.71,1.44-53.48,1.51-23.83,4-47.59,7.29-71.28,3.94-28.49,9.81-56.54,16.39-84.49.51-2.17,1.31-4.26,2-6.39,9.19.05,18.38.07,27.57.19,1.19,0,2.81-.76,3.5.8.52,1.15-.59,2-1.27,2.86-18.19,23-28.83,49.55-37.17,77.21-12.78,42.4-17.37,85.89-17.76,130C666.82,457.51,668.47,460.3,664.86,460.56Z"/><path class="cls-1" d="M589.24,403.72c-7.12,0-14.25-.12-21.37.06-3,.07-4.37-.68-4.25-4,.23-6.32.16-12.65,0-19-.06-2.68.47-4,3.65-4q21.93.23,43.86,0c3.13,0,3.75,1.25,3.69,4-.13,6.32-.2,12.66,0,19,.11,3.3-1.2,4.08-4.27,4C603.5,403.6,596.37,403.72,589.24,403.72Z"/><path class="cls-1" d="M402.6,190.43c1.34.95.79,2.36.82,3.59.24,9.69.22,9.69,10.23,9.69,12.65,0,12.65,0,12.65-12.28,0-14.27,0-14.33,14.63-14.21,2.9,0,5.95-.93,8.74.7-2.32,2.19-5.27,1.65-8,1.69-13.83.2-12.34-1.53-12.54,12.78-.06,3.84.92,7.88-1.66,11.38-1.92,7.33-.69,14.79-.75,22.17,0,3.94-1.15,5.23-5.09,5-4.67-.31-9.39.1-14.07-.12-3.23-.16-4.52,1-4.11,4.15a8.33,8.33,0,0,1,0,2.23c-.32,2.12,1.19,5.43-1,6.13a16.61,16.61,0,0,1-9.94.1c-2.74-1-.79-4.66-1.24-7.1-.85-4.59,1-6.64,5.74-5.74,5.26,1,6.31-1.52,6-6.16-.42-6.86-.29-13.76-.4-20.64C400.18,199.3,400,194.86,402.6,190.43Z"/><path class="cls-1" d="M449.94,203.66h23.72l-.07-.07c0,7.79-.06,15.57.09,23.35.06,2.8-.7,4-3.74,3.92-5.41-.19-10.84-.19-16.26,0-3,.1-3.81-1.09-3.76-3.91.15-7.78.06-15.56.06-23.35Z"/><path class="cls-1" d="M473.63,297.36c0,13.67,0,13.67-13.52,13.67C450,311,450,311,450,300.7c0-4.1.19-8.2-.06-12.29-.19-3.27.64-4.74,4.3-4.52a128.47,128.47,0,0,0,15.2,0c3.69-.23,4.53,1.29,4.27,4.54C473.45,291.39,473.63,294.38,473.63,297.36Z"/><path class="cls-1" d="M462.19,256.93c0,13.42,0,13.42-12.13,13.42-11.84,0-11.94,0-11.78-12.07.06-4.75-2.12-10.8,1.08-13.89,2.92-2.83,8.91-.76,13.54-.83,9.29-.13,9.29,0,9.29,8.92Z"/><path class="cls-1" d="M427.45,203.77c0-7.06.15-14.13-.1-21.19-.14-3.74,1.3-4.85,4.9-4.71,5.79.23,11.61.06,17.42,0,1.06,8.57.59,17.15.27,25.73l0,0C442.47,204.34,435,204,427.45,203.77Z"/><path class="cls-1" d="M432.33,316.92c-1.29-5.24.66-6.67,6-6.88,6.31-.25,6,2.83,6.25,7.31.33,5.3-1.65,6.19-6.54,6.38C432.14,324,431.27,321.46,432.33,316.92Z"/><path class="cls-1" d="M373.56,183.87c-1.09-4.87.18-6.87,5.83-7,6.11-.12,6.29,2.53,6.42,7.24.13,4.89-1.17,6.28-6.19,6.22S372.13,189.15,373.56,183.87Z"/><path class="cls-4" d="M426.47,331.33c1.15,4.81-.41,6.59-6.1,6.82-7.37.3-5.59-4.12-5.89-8.09-.34-4.49.33-6.74,6.06-6.87C427.44,323,427,326.64,426.47,331.33Z"/><path class="cls-1" d="M432.49,283.84c1.48,5.43-1.32,6.07-6.19,6.37-6.05.37-5.75-2.64-6-6.9-.27-5,1.24-6.42,6.4-6.54C432.6,276.63,433.42,279.14,432.49,283.84Z"/><path class="cls-1" d="M402.6,190.43l0,13.32-10.11,0a34.29,34.29,0,0,1,0-13.54C395.85,189.86,399.24,189.43,402.6,190.43Z"/><path class="cls-5" d="M507.59,266.41c2.1-4.59,6-1.63,9.09-2.16C514.4,268.05,510.58,265.52,507.59,266.41Z"/><path class="cls-6" d="M392.46,190.17v13.54A15.34,15.34,0,0,1,392.46,190.17Z"/><path class="cls-1" d="M402.53,237.48c.79,4-.75,5.38-5,5.44-4.52.07-5.11-1.84-5.15-5.63,0-4.09.79-5.92,5.51-5.86S403,233.88,402.53,237.48Z"/><text class="cls-7" transform="translate(723.17 403.78) scale(0.96 1)">U<tspan class="cls-8" x="115.69" y="0">P</tspan><tspan class="cls-9" x="220.95" y="0">3-M</tspan><tspan class="cls-10" x="504.73" y="0">K</tspan><tspan class="cls-11" x="611.16" y="0">S</tspan></text><text class="cls-12" transform="translate(496.9 290.24) scale(0.8 1)">PLN</text><text class="cls-13" transform="translate(226.43 527.96) scale(0.52 1)">AMS</text></svg>