<svg id="Layer_1" data-name="Layer 1" xmlns="http://www.w3.org/2000/svg" viewBox="0 0 1080 1080"><defs><style>.cls-1{fill:#568c9c;}.cls-2{fill:#fff;}.cls-3,.cls-4{fill:#34bfd7;stroke:#34bfd7;stroke-miterlimit:10;}.cls-3{stroke-width:5px;}.cls-5{fill:#efe62f;}</style></defs><title>Artboard 7 copy 2</title><path class="cls-1" d="M242.67,287.45l10,.05C249.33,290.9,246,291.05,242.67,287.45Z"/><circle class="cls-2" cx="575.2" cy="562.44" r="340.39"/><path class="cls-3" d="M406.62,595.29c0-44.66.14-89.31-.13-134-.05-7.92,2.18-13.94,7.87-19.51,19.65-19.22,39-38.75,58.36-58.27a20,20,0,0,1,15.15-6.2q95,.18,190,.09c22.37,0,37.3,15,37.4,37.28q0,8.75,0,17.49c-.07,7.91-4.82,13.05-12,13.08s-11.73-5-11.85-13.11c-.08-6,.06-12-.1-18-.21-8.5-4.6-12.85-13.18-12.86q-91-.07-182-.1c-4,0-5.09,1.28-5,5.16.24,10.66.12,21.33.07,32-.06,14.21-8.74,23.16-22.95,23.41-10.83.19-21.67.25-32.49,0-4.22-.11-5.31,1.23-5.29,5.34.14,39.32.09,78.64.08,118q0,72.23,0,144.46c0,10.37,4.22,14.71,14.46,14.71q116,0,231.94,0c10.13,0,14.28-4.1,14.4-14.22.08-6.66,0-13.33.09-20,.14-7.54,5-12.59,12-12.54,6.68,0,11.67,5.06,11.82,12.28.16,8.33.31,16.67,0,25a35.26,35.26,0,0,1-34.75,33.32q-119.48.15-238.95,0a26.43,26.43,0,0,1-4-.25c-18.09-2.77-30.76-17.26-30.79-35.61Q406.53,663.77,406.62,595.29Z"/><path class="cls-3" d="M754.3,407.71c1-3,1.93-6.21,3-9.31,2.34-6.71,8.13-9.89,15-8.17,3.87,1,7.71,2.07,11.53,3.23,7.88,2.37,11.17,8.22,9.16,16.18-.72,2.87-1.54,5.71-2.42,9,2.22.74,4.1,1.31,5.93,2a17.07,17.07,0,0,1,11,20.39c-1.41,5.79-3.16,11.5-4.68,17,.45.59.6,1,.86,1.09,14.71,5.58,18.83,13.73,14.48,28.75q-9,31.19-18,62.36c-1.13,3.92-3.34,6.59-7.76,6.32a6.44,6.44,0,0,1-6.35-6c-.26-1.86.41-3.92,1-5.81q9-31.19,18.09-62.34c.89-3.05,1.41-6-1.63-8.1-2.85-2-5-1.95-6.15,2.18-4.87,17.3-10,34.54-15,51.81Q767.15,580.55,752,632.81a61.84,61.84,0,0,1-22,32.56c-9.63,7.41-19.41,14.64-29.21,21.83-4.4,3.24-9.1,2.76-10.94-1.85-6.47-16.18-13-32.39-18.28-49-2.87-9-.93-18.49,1.71-27.58,18.05-62.16,36.32-124.25,53.91-186.54,3.61-12.78,14.55-18.83,25.21-14.57A6.46,6.46,0,0,0,754.3,407.71ZM741,619.91l43.91-151.4L733,453.45c-14.72,50.73-29.27,100.9-43.92,151.38Z"/><path class="cls-3" d="M560.45,543H472a22.2,22.2,0,0,1-4.47-.26c-3.72-.78-5.85-3.16-5.86-7s2.42-6,6-6.84a18.17,18.17,0,0,1,4-.2h178a24.85,24.85,0,0,1,4.49.2c4,.73,6.32,3.23,6.13,7.26-.18,3.74-2.61,6-6.3,6.69a26.84,26.84,0,0,1-4.49.12h-89Z"/><path class="cls-3" d="M560.56,579.46H469.94c-5,0-8.26-2.48-8.4-6.5-.14-4.23,3.27-7.47,8.22-7.47,33.25,0,66.51.11,99.76.11,27,0,53.9-.1,80.85-.13,1.65,0,3.49-.21,4.92.41,3.26,1.39,5.73,3.84,4.92,7.72s-3.49,5.79-7.54,5.79c-15.6,0-31.21.11-46.81.14q-22.65,0-45.3,0Z"/><path class="cls-3" d="M550,503.15c-30,0-60,0-90-.08-2.36,0-5.32-.45-6.9-1.89a8,8,0,0,1-2.1-6.55c.46-2,2.8-3.89,4.78-5.05,1.4-.83,3.56-.47,5.39-.47H637.61a40.14,40.14,0,0,1,5.49.19c3.81.52,6,2.82,6.13,6.66s-2.11,6.2-5.81,7a21.51,21.51,0,0,1-4.48.21H550Z"/><path class="cls-4" d="M574.61,701.93c-3.21,4.55-5.72,8-8.07,11.48-2.12,3.18-3.82,6.67-6.15,9.68s-5.72,4.15-9.23,1.72c-3.28-2.25-4.67-5.55-2.41-9.08,4.83-7.54,9.41-15.38,15.22-22.13,7.2-8.36,16.27-7.44,22.61,1.62,2.08,3,3.66,3.36,6.83,1.91,5.66-2.6,11.17-1.71,15.67,2.67,2.21,2.15,3.75,1.41,6.09.34C629,693.75,643,687.43,657,681.44c4.93-2.11,9.25.29,10.2,4.72.81,3.78-1.7,6.9-6.29,8.86-12.36,5.29-24.68,10.68-36.89,16.32-3.59,1.65-6.73,4.26-10.07,6.43-5.17,3.36-8.93,2.35-11.82-3.18-2.78-5.35-3.08-5.41-7.91-1.75-1.06.8-2.07,1.67-3.15,2.45-4.56,3.24-9,2.11-11.45-2.94C578.12,709.3,576.67,706.22,574.61,701.93Z"/><path class="cls-3" d="M513.54,602.32q21.71,0,43.41,0c5.73,0,9.1,2.71,9,7s-3.4,6.88-9.18,6.88q-43.17,0-86.32,0c-6,0-9.44-3-8.86-7.56s3.56-6.41,8-6.4C484.27,602.35,498.91,602.32,513.54,602.32Z"/><path class="cls-4" d="M489.94,716c-6.66,0-13.32.06-20,0-5.12-.07-8.16-2.58-8.36-6.66-.21-4.29,2.94-7.48,8.11-7.51q20.48-.15,41,.15c4.67.06,7.55,2.91,7.64,6.88s-3,7-7.89,7.14c-6.82.14-13.65,0-20.48,0Z"/><path class="cls-3" d="M750.15,484.28c-.27,1.1-.55,2.4-.92,3.67q-7.5,25.85-15,51.69c-1.77,6-7.33,8.62-11.22,4.92-1.7-1.63-3.11-5.21-2.54-7.33,5-18.6,10.49-37.09,16-55.57,1.13-3.8,4.09-5.73,8.11-4.87C748.27,477.6,750,480.32,750.15,484.28Z"/><path class="cls-5" d="M343.81,370h2.69c18.73,0,37.47,0,56.21,0,11.19,0,20.32,8.52,21.73,20.1a22.34,22.34,0,0,1-16.15,24,25.83,25.83,0,0,1-6.62.76q-27.6.09-55.19,0h-2.67v2.62q0,28.59,0,57.18c0,10.83-7.18,19.94-17.36,22.12a21.4,21.4,0,0,1-24.56-13,26.76,26.76,0,0,1-1.85-9.67c-.16-18.85-.08-37.71-.08-56.56v-2.67h-2.6c-18.74,0-37.48,0-56.22,0a22.46,22.46,0,0,1,.09-44.9c18.6,0,37.2,0,55.8,0H300v-2.53c0-19.06,0-38.12,0-57.18,0-11,7-20,17.18-22.3,13.68-3.08,26.59,7.44,26.65,21.85.07,19.13,0,38.26,0,57.39Z"/></svg>