<svg id="Layer_1" data-name="Layer 1" xmlns="http://www.w3.org/2000/svg" viewBox="0 0 1080 1080"><defs><style>.cls-1,.cls-4{fill:#34bfd7;}.cls-2{fill:#fcfcfc;}.cls-3{fill:#efe62f;}.cls-4{stroke:#34bfd7;stroke-miterlimit:10;stroke-width:3px;}</style></defs><title>Artboard 9</title><path class="cls-1" d="M891.48,527.79v31.9c-.59,3.1-.34,6.25-.38,9.35-.18,15.31-2.46,30.35-5.4,45.32a356.59,356.59,0,0,1-18.4,61.94,355.42,355.42,0,0,1-42.19,76.83A371,371,0,0,1,794,790.66a388.58,388.58,0,0,1-31.81,29.86,362.12,362.12,0,0,1-161.36,77,272.65,272.65,0,0,1-31,4.56c-6.55.55-13.15.74-19.74.77a4.54,4.54,0,0,0-2.42.21H512.38c-3-.57-6-.3-9-.37a243.75,243.75,0,0,1-35.74-3.72,366.88,366.88,0,0,1-49.05-12.07,360.77,360.77,0,0,1-57.76-24.26A357,357,0,0,1,314,833.05a336.27,336.27,0,0,1-28.31-23.34,384.73,384.73,0,0,1-39-41.41,376.66,376.66,0,0,1-25.08-35.4,354.4,354.4,0,0,1-37.42-81,363.24,363.24,0,0,1-13-56.65,246.18,246.18,0,0,1-2.24-28.45c-.12-3.71.19-7.45-.39-11.15V532.73c.39-.46.22-1,.22-1.51q0-13.51,1-27c.45-6,1.34-12.05,2.35-18a355.74,355.74,0,0,1,30.27-96.58,370.13,370.13,0,0,1,29-50.16c6.17-9,13-17.46,19.79-25.93,3.78-4.67,7.8-9.13,11.9-13.5,3.8-4,7.51-8.18,11.51-12a392.83,392.83,0,0,1,37.89-32.57,363.37,363.37,0,0,1,51.35-32.15,363.91,363.91,0,0,1,108.45-35.68,224.82,224.82,0,0,1,35.43-3.12c1.9-.1,3.82.2,5.71-.2.68-.05,1.36,0,2,0h28.76c13.69.37,27.35.82,40.95,3a375.75,375.75,0,0,1,57,13.47,351.39,351.39,0,0,1,54.48,22.73,363.19,363.19,0,0,1,63,41.31,372.82,372.82,0,0,1,35.36,33,356.3,356.3,0,0,1,39.63,50.56,372.5,372.5,0,0,1,22.08,38.87,354.49,354.49,0,0,1,22.85,60.21,340.87,340.87,0,0,1,10.85,56.37c.48,4.64.38,9.35.62,14C891.23,521.1,891,524.46,891.48,527.79Z"/><path class="cls-2" d="M857.09,541.35C858.22,722,711.55,867.27,533.28,868.88,351.14,870.52,203.74,723.8,203.12,545c-.63-180.1,146.44-325.71,325.45-326.45C709.08,217.77,855.83,363,857.09,541.35Z"/><path class="cls-1" d="M680.63,560.7v15.57q0,67.29,0,134.58c0,15-6.93,26.2-20.08,33.49-5.85,3.24-12.26,4.29-18.94,4.27-19.65-.07-39.31,0-59,0l-118.6,0c-15.29,0-30.58.08-45.86.08-13.07,0-23.68-5-31.48-15.55a35.22,35.22,0,0,1-7.11-21.37q-.06-149,0-297.92c0-20.92,16.52-37.31,37.54-37.48,1.8,0,3.61,0,5.42,0,1,0,1.2.36.93,1.22-1.51,4.74-1.3,9.63-1.22,14.48,0,1.74-.57,2.23-2.21,2.13-5.92-.36-11.37.79-15.94,4.88a18.88,18.88,0,0,0-6.45,12.22,37.85,37.85,0,0,0-.2,4.26q0,44.71-.05,89.42c0,23.81.08,47.63.09,71.44q0,67.06,0,134.13c0,8.82,4.07,15.11,12.12,18.83a19.11,19.11,0,0,0,8.15,1.49l160.62,0h63.48c12.65,0,21-8.2,21-20.77q0-64.71,0-129.41a5,5,0,0,1,1.63-3.93c4.51-4.4,8.92-8.91,13.38-13.37C678.57,562.58,679.41,561.85,680.63,560.7Z"/><path class="cls-1" d="M529.91,426.66c-26.58,0-53.15-.09-79.73.07-6.18,0-10.37-4.19-10.25-10.14.22-10.18.19-20.37,0-30.55a9.43,9.43,0,0,1,9.73-9.7c13.17.19,26.35,0,39.52.1,2.2,0,2.58-.82,2.72-2.64,1.1-13.71,7.75-24,19.7-30.83,20.89-11.92,48.59-.62,55.2,22.41a34.14,34.14,0,0,1,1.55,9c0,1.87.86,2,2.34,2q19.77,0,39.53,0c6.51,0,10,3.51,10,10q0,14.82,0,29.65c0,7.26-3.38,10.58-10.61,10.58h-40Q549.79,426.65,529.91,426.66Z"/><path class="cls-3" d="M513,681.38c-2.94,0-4.31-1.56-4.07-4.13a40.26,40.26,0,0,1,3.18-11.43c9-22,22.41-41,38.87-58,11.73-12.12,23.82-23.91,35.75-35.84,1.91-1.91,3.84-3.8,5.72-5.73a1.46,1.46,0,0,1,2.45,0q14.86,14.88,29.79,29.71c.89.88.94,1.49,0,2.38-17.15,16.48-33.12,34.17-51.24,49.65a184.35,184.35,0,0,1-43.8,28.09,71.54,71.54,0,0,1-13.81,4.82C514.71,681.13,513.59,681.27,513,681.38Z"/><path class="cls-3" d="M637.18,521.87q11.7-11.68,23.39-23.38,11.86-11.83,23.76-23.65a3.41,3.41,0,0,0,1.34-2.21,14.86,14.86,0,0,0-7,1.27c-7.27,2.65-13.69,6.81-19.83,11.41a142.72,142.72,0,0,0-19.12,17.39c-8.34,9-15.94,18.59-20.38,30.13-1.37,3.57-3.73,6-6.09,8.67-.7.79-1.48,1.3-2.56.77a2,2,0,0,1-1-2.3,38,38,0,0,1,4-13.25c5.83-11.88,14-22.06,23.16-31.52A133.71,133.71,0,0,1,665,472.56c6.7-3.92,13.61-7.41,21.73-7.21a4.5,4.5,0,0,1,2,.17c3.41,2,5.36-.14,7.35-2.37a23.52,23.52,0,0,1,12-7.57c10.07-2.46,20.11,1.57,25.19,10a22.21,22.21,0,0,1-2.9,27.36c-8.31,8.66-17,17-25.47,25.48q-16.74,16.69-33.48,33.39c-2.5,2.48-5.12,4.84-7.68,7.25-1.09-.49-.89-1.39-.78-2.3a61.33,61.33,0,0,0,.6-9.58c-.45-13.44-10.23-24.74-24.43-24.66C638.39,522.57,637.59,522.77,637.18,521.87Z"/><path class="cls-1" d="M583.78,556.67l-16.1,16c-.8.79-1.83.57-2.78.57l-46.52,0c-14.83,0-29.66,0-44.49,0-5.5,0-9.21-3.82-9-9.06a8.33,8.33,0,0,1,8.57-8.05l68.43,0h41.7Z"/><path class="cls-1" d="M662.81,435q0-10.22,0-20.44c0-11.94-8.39-20.32-20.41-20.43-4.41,0-4.42,0-4.41-4.4,0-4.05.15-8.1-1.24-12-.32-.89,0-1.31,1-1.4,26.08-2.12,42.83,16.93,42.85,37.12,0,12.51,0,25,0,37.52,0,1.63-.56,2.18-2.1,2.44a49.94,49.94,0,0,0-13.78,4.81c-1.48.73-2,.72-2-1.2.08-7.34,0-14.68,0-22Z"/><path class="cls-3" d="M637.18,521.87c6.52-1.28,12.29.72,17.26,4.63,9,7.11,11.33,16.81,9.91,27.72-.21,1.63-.41,3.26-.61,4.88-1.65,2.52-4.07,4.32-6.16,6.43-3.65,3.68-7.19,7.49-11.19,10.83-4.5,3.42-9.72,2.88-14.88,2.65a13.59,13.59,0,0,1-9.64-4.13,11.52,11.52,0,0,1-3-7.09c-.19-2.08.41-2.73,2.51-2.84,3.23-.16,6.47-.07,9.7-.06a27.89,27.89,0,0,0,6.7-.84c4.73-1.14,7.81-4.06,8.36-8.88.52-4.58.9-9.22-1-13.71-1.5-3.49-4.19-5.34-7.68-6.35a34.14,34.14,0,0,0-8.72-.89c-1,0-2.43.23-2.49-1.51L635,524Z"/><path class="cls-3" d="M626.17,532.71c1.72.85,3.56.42,5.34.44a22.57,22.57,0,0,1,8,1.38c4.71,1.84,7.22,5.58,7.83,10.41a37,37,0,0,1-.13,11c-.85,4.85-3.9,7.8-8.56,9.11a24.45,24.45,0,0,1-7.13,1c-2.63,0-5.27-.07-7.9,0-1.29,0-3-.69-3.77.69-.82,1.54.07,3.21.87,4.66,2.85,5.1,7.61,6.53,13.07,6.77,4.34.18,8.46-.94,12.64-1.77-4.8,5.43-10.24,10.23-15.22,15.49-.62.65-1.21.79-1.9.08-4.52-4.55-9.32-8.83-13.5-13.72,0-.22,0-.52.12-.65,2.31-1.87,2-4.45,2-7,0-9.21.07-18.42-.09-27.63,0-.78.35-1.45.3-2.21Z"/><path class="cls-3" d="M530.67,698.2H435.12a31.91,31.91,0,0,1-3.39-.1,1.83,1.83,0,0,1-1.75-2,1.91,1.91,0,0,1,1.68-2.07,11.36,11.36,0,0,1,2-.11l188.86-.07c2.25,0,4.51,0,6.77.06,1.48,0,2.28.71,2.24,2.18a1.9,1.9,0,0,1-2.16,2l-1.81,0H530.67Z"/><path class="cls-1" d="M473.91,628.81q20.54,0,41.08,0c.7,0,1.69-.39,2.07.35s-.61,1.26-.86,1.92c-2.05,5.4-5.92,6.56-11.57,6.47-23.09-.36-46.19-.14-69.28-.15a28.85,28.85,0,0,1-4.06-.14,4.25,4.25,0,0,1,.19-8.4,39.24,39.24,0,0,1,4.06-.06Z"/><path class="cls-3" d="M492.53,689.14c-1.73,1.53-3,1.06-4.48-.61a69.7,69.7,0,0,1-10.1-15.3c-.65-1.34-1.2-1.6-2.17-.39-.24.29-.55.52-.8.8-1.3,1.52-3.67,1.87-4.68,3.32s.21,3.7-.4,5.59a9.72,9.72,0,0,1-7,6.67,7.64,7.64,0,0,1-8.52-2.58c-1.44-1.74-2.44-2.29-4.66-.77-3.8,2.61-8,2.28-10.61-.17a8,8,0,0,1,1.29-12.42,17.65,17.65,0,0,1,3-1.55c2.95-1.16,5.29-.25,7.06,2.6.54.86.95,2.41,1.93,2.22s1.14-1.8,1.31-2.86c1-6.46.55-12.67-3.27-18.28a23.27,23.27,0,0,0-8.14-7.29c-.65-.37-1.5-.6-1.27-1.58.29-1.16,1.33-.84,2.07-.76a15.19,15.19,0,0,1,13.07,9.44,18.09,18.09,0,0,0,1.15,2.39,28,28,0,0,1-.86,20.35c-1.31,3-1.41,3,1.26,5.14a10.81,10.81,0,0,0,3.71,2.08c2.38.67,3.8-.42,3.93-2.88.15-2.65-1.3-4.34-3.38-5.65-.56-.35-1.19-.6-2-1,1.71-1.5,2.94-2.86,5.53-2.06,3.23,1,8-1.53,9.86-4.5.69-1.14.14-2-.2-3-.56-1.63.59-3.12,3-3.73,1.75-.44,2,.9,2.24,2.07,1,4.95,3.72,9.09,6.2,13.35.49.86.84.82,1.38,0,.77-1.25,1.72-2.38,2.6-3.56.89-.28,2.13-1.1,1.54,1l0,.09c-1.55,3.32-.8,6.5.5,9.68C493.14,686.32,494.78,687.76,492.53,689.14Z"/><path class="cls-3" d="M618.12,540.73c1.1.71.85,1.88.86,2.86,0,10.63,0,21.26.07,31.89,0,2.55-1.79,2.3-3.28,2.73-.51,0-.77-.32-1.09-.64-5.08-5.1-10.14-10.21-15.27-15.25-1.14-1.12-1.32-1.78,0-3,4.91-4.71,9.51-9.72,14.54-14.32C615.4,543.65,616.33,541.77,618.12,540.73Z"/><path class="cls-1" d="M519.14,596.59c7.37,0,14.74,0,22.11,0,.56,0,1.35-.29,1.66.3.42.78-.51,1.1-.89,1.59s-.71.6-.93,1c-3,5-7.44,6.13-13.11,5.88-10.28-.46-20.6-.13-30.9-.18-3.51,0-5.55-2.46-4.69-5.44.61-2.12,2-3.09,4.87-3.1,7.29,0,14.59,0,21.88,0Z"/><path class="cls-1" d="M447.76,605.16H432.18a4,4,0,0,1-4-2.41,4.35,4.35,0,0,1,.47-4.47,4.17,4.17,0,0,1,3.75-1.68q15.57,0,31.16,0A4.23,4.23,0,0,1,468,601a4.15,4.15,0,0,1-4.41,4.12c-5.27.05-10.54,0-15.8,0Z"/><path class="cls-1" d="M603.63,637.35c2.93-3,5.42-5.44,7.89-7.94a2.12,2.12,0,0,1,1.62-.63c5.57,0,11.14,0,16.71.09a4,4,0,0,1,4,4.09c0,2.28-1.44,4.31-3.7,4.34C621.48,637.42,612.85,637.35,603.63,637.35Z"/><path class="cls-3" d="M457.33,657.61a4.58,4.58,0,0,1-1.31-2,15.83,15.83,0,0,0-12.27-9.35c-.7-.11-1.65-.53-2,.41s.66,1.33,1.3,1.55c2.85,1,4.51,3.34,6.6,5.22a2.33,2.33,0,0,1,.77,2c-1.95-1.75-3.88-3.51-5.86-5.22a14.16,14.16,0,0,0-2.39-1.66c-5.15-2.85-7.45-1.62-8,4.21a3.82,3.82,0,0,1-3.83,2.91c-1.18-.21-.81-1.11-.68-1.77a9.72,9.72,0,0,1,6.71-7.49C445.7,643.05,454.88,648,457.33,657.61Z"/><path class="cls-3" d="M492.11,675.16c-.14-.91-.85-.93-1.54-1a10.28,10.28,0,0,1,7.13-3.46C495.88,672.64,493.14,672.92,492.11,675.16Z"/><path class="cls-3" d="M492.53,689.14a2.88,2.88,0,0,0,0-3.51,14.36,14.36,0,0,1-1.57-8,3.22,3.22,0,0,1,1.08-2.39c-1.11,4-.22,7.73,1.62,11.31C494.41,687.94,494.08,688.8,492.53,689.14Z"/><path class="cls-1" d="M530.14,356.09a20.29,20.29,0,1,1-20.48,20.33A20.29,20.29,0,0,1,530.14,356.09Z"/><path class="cls-4" d="M480.85,450.52v-3.67H491.4v5h-.76Zm11.3,52.77,9.8,1.37v3.67h-21.1v-3.67l9.79-1.37Zm-4.14-28c0-9.46,0-19-.23-28.45H495c-.23,9.54-.23,18.54-.23,29.36V479c0,10.37,0,19.91.23,29.36h-7.24c.23-9.27.23-18.81.23-28.44Zm3.39.46h9.42c8.14,0,12.06-5.33,12.06-12.76,0-7.71-3.39-11.93-11.23-11.93H491.4v-4.22h10.32c11.53,0,18.32,6,18.32,16.15,0,7.8-5,14.87-14.93,15.88l.23-.74c5.43.64,8.74,3.67,10.78,11.93l3.69,15.23-2.34-1.74,7.77,1.1v3.67a14.56,14.56,0,0,1-5.43.92c-4.67,0-6.71-1.47-7.61-5.69l-3.09-15c-1.51-7.43-4.3-8.71-10.55-8.71H491.4Z"/><path class="cls-4" d="M555.08,527.15v3.21H535.79v-3.21l8.52-1.84h1.5Zm-13-42.4c0-5.05-.07-7.89-.23-11.56l-6-.83v-3.21l10.24-5.51,1.14.92.6,7.8.3.18v28.63l-.23.56v9.17c0,6.43.08,13,.23,19.46h-6.26q.24-9.65.23-19.27Zm15.37-16.06c-2.78,0-6.55,1.65-12,8.17l-.68-1.66c4.37-8.07,9.27-11.56,14.39-11.56,8,0,14.32,8.63,14.32,22.76s-6.63,23.13-15.45,23.13c-4.6,0-9.27-2.57-13.26-12.12l.68-1.47c3.92,6.06,7.53,8.54,11.23,8.54,5.72,0,10.4-5.42,10.4-17.25S563.07,468.69,557.49,468.69Z"/><path class="cls-4" d="M589,503.1c0-3.58,2.34-6.51,5.28-6.51s5.27,2.93,5.27,6.51-2.34,6.43-5.27,6.43S589,506.59,589,503.1Z"/></svg>