<svg id="Layer_1" data-name="Layer 1" xmlns="http://www.w3.org/2000/svg" viewBox="0 0 1009.29 1080"><defs><style>.cls-1{fill:#28406f;}.cls-13,.cls-2{fill:#34bfd7;}.cls-3{fill:#efe62f;}.cls-4{fill:#00a1b9;}.cls-5{fill:#0ba5bc;}.cls-6{fill:#12a8be;}.cls-7{fill:#69c8d6;}.cls-8{fill:#05a3bb;}.cls-9{font-size:61.85px;stroke-width:0.5px;font-family:Montserrat-BoldItalic, Montserrat;}.cls-14,.cls-9{fill:#fff;stroke:#fff;stroke-miterlimit:10;font-weight:700;font-style:italic;}.cls-10{letter-spacing:-0.01em;}.cls-11{letter-spacing:-0.02em;}.cls-12{letter-spacing:0em;}.cls-13{font-size:131.5px;font-family:Barlow-ExtraBold, Barlow;font-weight:800;}.cls-14{font-size:391.8px;stroke-width:6px;font-family:Humanist521BT-BoldItalic, Humanst521 BT;letter-spacing:0.1em;}</style></defs><title>Logo sq copy</title><rect class="cls-1" x="38.39" y="118.59" width="952.87" height="855.39" rx="210.13"/><path class="cls-2" d="M557.71,306.84c-.15-10.75.17-21.53-.62-32.23-.58-8,1.7-10.59,10.8-10.53,64.26.41,128.53.22,192.8.22,35.95,0,71.91.15,107.86-.14,6.73-.06,8.7,1.83,8.48,8.07-.55,15.82.3,31.71-.82,47.49-.68,9.62,3,11.15,12.18,11,18.37-.28,36.8-1.25,55.16.59-3.21,3.89-7.89,3.41-12.27,3.47q-20.53.27-41,0c-7.34-.09-10.51,2.84-10.17,9.64.16,3.28,0,6.58,0,9.87,0,122.3.21,244.61-.46,366.91,0,4.94,1.42,10.28-2.77,14.58l-168.06.37H691.56c-14.83,0-14.83,0-14.83-14.38,0-6.28.53-12.62-.13-18.84-.82-7.64,1.45-10.18,10.25-10.09,46.48.46,93,.06,139.44.38,7.63,0,10.27-1.42,10.26-9.18q-.4-184,0-368c0-7.28-2.32-8.93-9.69-8.91q-129.42.33-258.83.12c-3.47,0-6.94-.4-10.41-.61Z"/><path class="cls-3" d="M876.81,735.82q0-197.94-.23-395.9c0-8.68,2.35-11.31,11.61-11,18.44.57,36.91-.1,55.37-.26,1.41,8.51-4.33,15.32-6.27,23-3,11.94-7,23.66-10.58,35.47,2.48,3.54.6,7-.29,10.43-13,50.05-23.72,100.53-30.11,151.73-5.29,42.4-9.93,84.84-12.16,127.54-.92,17.42-.93,34.8-1.51,52.19-.07,2.4.09,4.86-1.88,6.78Z"/><path class="cls-2" d="M696.78,522c-29.61,0-59.23-.39-88.82.23-9.25.2-11.34-2.72-10.74-10.58a235.24,235.24,0,0,0,.06-26c-.16-4.78,1-6.85,6.78-6.83q93.12.27,186.26,0c5.65,0,7,1.89,6.85,6.76-.31,9.87-.41,19.76,0,29.61.26,5.74-2.15,7-7.77,6.93C758.55,521.88,727.67,522,696.78,522Z"/><path class="cls-4" d="M881.94,719.47c-1.05-28.68.52-57.36,2.44-85.91,2.57-38.26,6.8-76.43,12.36-114.49,6.69-45.75,16.64-90.82,27.8-135.71.86-3.48,2.22-6.84,3.35-10.26,15.59.08,31.18.12,46.77.31,2,0,4.76-1.22,5.93,1.27.88,1.86-1,3.22-2.17,4.61-30.83,36.92-48.88,79.58-63,124-21.67,68.11-29.47,138-30.12,208.75C885.27,714.58,888.06,719.06,881.94,719.47Z"/><path class="cls-2" d="M753.72,628.17c-12.08,0-24.17-.19-36.24.09-5.17.12-7.42-1.08-7.22-6.41.4-10.14.27-20.31,0-30.46-.09-4.3.81-6.45,6.19-6.4q37.2.36,74.39,0c5.3,0,6.36,2,6.25,6.36-.23,10.15-.34,20.32,0,30.47.2,5.29-2,6.56-7.22,6.43C777.88,628,765.8,628.17,753.72,628.17Z"/><path class="cls-2" d="M437.22,285.57c2.27,1.53,1.33,3.8,1.38,5.77.42,15.57.39,15.57,17.36,15.57,21.44,0,21.44,0,21.44-19.73,0-22.92,0-23,24.82-22.83,4.92,0,10.08-1.48,14.81,1.13-3.94,3.52-8.93,2.65-13.6,2.71-23.44.33-20.93-2.46-21.27,20.54-.09,6.16,1.57,12.65-2.8,18.27-3.25,11.77-1.18,23.75-1.27,35.62-.06,6.32-1.95,8.39-8.63,8-7.92-.51-15.92.15-23.86-.21-5.48-.25-7.67,1.61-7,6.67a12.63,12.63,0,0,1,0,3.58c-.54,3.41,2,8.73-1.77,9.86-5.21,1.55-11.82,1.86-16.85.15-4.65-1.57-1.34-7.49-2.1-11.41-1.44-7.37,1.75-10.66,9.72-9.21,8.93,1.63,10.71-2.44,10.23-9.89-.71-11-.49-22.11-.67-33.16C433.12,299.83,432.75,292.69,437.22,285.57Z"/><path class="cls-2" d="M517.49,306.82l40.22,0-.11-.11c0,12.51-.11,25,.16,37.51.09,4.5-1.2,6.46-6.35,6.28-9.18-.3-18.39-.3-27.57,0-5.12.17-6.47-1.74-6.38-6.27.26-12.49.09-25,.1-37.5Z"/><path class="cls-2" d="M557.67,457.33c0,22,0,22-22.93,22-17.19,0-17.19,0-17.19-16.59,0-6.58.31-13.18-.1-19.74-.33-5.27,1.08-7.62,7.29-7.27a228.39,228.39,0,0,0,25.77,0c6.25-.36,7.68,2.08,7.25,7.29C557.36,447.74,557.67,452.55,557.67,457.33Z"/><path class="cls-2" d="M538.28,392.39c0,21.55,0,21.55-20.59,21.55-20.06,0-20.25,0-20-19.38.1-7.63-3.59-17.35,1.82-22.31,5-4.54,15.12-1.23,23-1.33,15.75-.22,15.75-.07,15.76,14.32Z"/><path class="cls-2" d="M479.36,307c0-11.34.25-22.7-.18-34-.23-6,2.2-7.79,8.31-7.57,9.83.37,19.69.09,29.54.08,1.81,13.77,1,27.55.46,41.34l.07-.07C504.83,307.92,492.1,307.44,479.36,307Z"/><path class="cls-2" d="M487.64,488.75c-2.19-8.42,1.11-10.71,10.13-11.05,10.7-.4,10.15,4.55,10.61,11.73.54,8.53-2.81,9.94-11.1,10.26C487.31,500.06,485.84,496,487.64,488.75Z"/><path class="cls-5" d="M505.53,496.66c-1.09-4.87.19-6.87,5.83-7,6.11-.12,6.29,2.53,6.42,7.24.14,4.89-1.17,6.28-6.19,6.22S504.1,501.93,505.53,496.66Z"/><path class="cls-6" d="M477.69,511.9c2,7.71-.7,10.58-10.35,11-12.48.49-9.47-6.62-10-13-.58-7.22.57-10.84,10.27-11.05C479.34,498.56,478.58,504.37,477.69,511.9Z"/><path class="cls-2" d="M487.9,435.61c2.51,8.73-2.24,9.76-10.49,10.24-10.26.59-9.75-4.24-10.14-11.09-.45-8.09,2.11-10.3,10.87-10.5C488.09,424,489.47,428.07,487.9,435.61Z"/><path class="cls-2" d="M437.22,285.57q0,10.69-.05,21.4L420,306.9a52.39,52.39,0,0,1,0-21.74C425.77,284.66,431.52,284,437.22,285.57Z"/><path class="cls-7" d="M615.26,407.62c3.55-7.37,10.2-2.61,15.41-3.47C626.8,410.24,620.33,406.19,615.26,407.62Z"/><path class="cls-8" d="M420,285.16V306.9A23.49,23.49,0,0,1,420,285.16Z"/><path class="cls-2" d="M437.09,361.15c1.36,6.34-1.26,8.64-8.54,8.74-7.67.12-8.66-3-8.72-9.05-.07-6.57,1.33-9.5,9.34-9.4S437.81,355.37,437.09,361.15Z"/><text class="cls-9" transform="translate(195.39 519.29) scale(0.83 1)">U<tspan class="cls-10" x="48.74" y="0">P</tspan><tspan x="93.09" y="0">3-M</tspan><tspan class="cls-11" x="212.65" y="0">K</tspan><tspan class="cls-12" x="257.5" y="0">S</tspan></text><text class="cls-13" transform="translate(597.13 445.9) scale(0.85 1)">PLN</text><text class="cls-14" transform="translate(138.48 829.4) scale(0.56 1)">AMS</text></svg>